nColumns=19
nRows=67
DataType=double
version=3
OpenSimVersion=4.1
endheader
time	ground_force_calcn_l_vx	ground_force_calcn_l_vy	ground_force_calcn_l_vz	ground_force_calcn_l_px	ground_force_calcn_l_py	ground_force_calcn_l_pz	ground_force_calcn_l_mx	ground_force_calcn_l_my	ground_force_calcn_l_mz	ground_force_calcn_r_vx	ground_force_calcn_r_vy	ground_force_calcn_r_vz	ground_force_calcn_r_px	ground_force_calcn_r_py	ground_force_calcn_r_pz	ground_force_calcn_r_mx	ground_force_calcn_r_my	ground_force_calcn_r_mz
2.075	7.7633	353.505	12.0656	-0.303166	-3.37527e-17	0.215989	-0.193583	-8.81489	-0.300865	-12.7835	353.135	-12.4811	-0.283144	-3.14985e-17	-0.165616	-0.205987	5.69022	-0.201114
2.08498	7.25073	353.76	12.1805	-0.30254	-3.36838e-17	0.215461	-0.180435	-8.80337	-0.303115	-12.7219	352.945	-12.7115	-0.282857	-3.14668e-17	-0.165215	-0.201732	5.59667	-0.201567
2.09495	6.76882	354.37	12.3703	-0.301877	-3.36113e-17	0.214983	-0.168113	-8.80128	-0.307233	-12.5038	353.118	-12.8845	-0.282559	-3.14339e-17	-0.164776	-0.196132	5.53893	-0.202103
2.10493	6.34498	355.316	12.6278	-0.301215	-3.35393e-17	0.21457	-0.157181	-8.80207	-0.312822	-12.1788	353.588	-13.0156	-0.282254	-3.14001e-17	-0.164294	-0.18979	5.51021	-0.202831
2.1149	5.99244	356.547	12.9341	-0.300553	-3.34676e-17	0.214226	-0.148056	-8.80929	-0.319567	-11.8078	354.28	-13.1323	-0.281896	-3.13608e-17	-0.163778	-0.183611	5.50904	-0.204208
2.12488	5.72342	358.021	13.2546	-0.299899	-3.33967e-17	0.213954	-0.140983	-8.81899	-0.326496	-11.4493	355.108	-13.2687	-0.281471	-3.13141e-17	-0.163243	-0.177978	5.52013	-0.20626
2.13486	5.55917	359.687	13.5722	-0.299292	-3.3331e-17	0.213775	-0.136528	-8.83359	-0.333321	-11.1603	356.006	-13.4485	-0.280995	-3.1262e-17	-0.162708	-0.173573	5.53683	-0.20916
2.14483	5.49345	361.483	13.8742	-0.298778	-3.32752e-17	0.213677	-0.13442	-8.84521	-0.33949	-11.0005	356.913	-13.6984	-0.280494	-3.12075e-17	-0.162187	-0.171468	5.56332	-0.213521
2.15481	5.51519	363.376	14.1518	-0.298338	-3.32274e-17	0.213635	-0.13428	-8.84723	-0.34456	-10.9971	357.798	-14.0096	-0.279967	-3.11505e-17	-0.161696	-0.171996	5.596	-0.219111
2.16478	5.6205	365.362	14.4154	-0.297947	-3.31848e-17	0.213639	-0.135944	-8.83707	-0.348667	-11.1127	358.683	-14.3526	-0.279387	-3.10877e-17	-0.161222	-0.173961	5.61494	-0.224681
2.17476	5.79012	367.457	14.6748	-0.297579	-3.31442e-17	0.213674	-0.13878	-8.80737	-0.351733	-11.3044	359.643	-14.6921	-0.278754	-3.10187e-17	-0.160766	-0.176415	5.61256	-0.229283
2.18474	5.9942	369.675	14.9321	-0.297224	-3.31047e-17	0.213708	-0.142001	-8.75749	-0.353737	-11.5395	360.78	-15.0077	-0.278082	-3.0945e-17	-0.160338	-0.179092	5.59927	-0.232918
2.19471	6.22226	372.039	15.1822	-0.296867	-3.30647e-17	0.213713	-0.145431	-8.69552	-0.354847	-11.7616	362.219	-15.2587	-0.277331	-3.08619e-17	-0.159929	-0.18103	5.57515	-0.234857
2.20469	6.45765	374.568	15.4344	-0.296474	-3.30205e-17	0.213674	-0.148557	-8.61688	-0.355066	-11.936	364.068	-15.4119	-0.276485	-3.07675e-17	-0.159551	-0.181535	5.53714	-0.234401
2.21466	6.66173	377.28	15.7063	-0.296005	-3.29675e-17	0.213575	-0.150412	-8.51839	-0.354623	-12.0541	366.37	-15.4462	-0.275584	-3.06663e-17	-0.159214	-0.180947	5.49964	-0.231865
2.22464	6.81521	380.148	15.9982	-0.295453	-3.29052e-17	0.213407	-0.150756	-8.40909	-0.353888	-12.0855	369.112	-15.3592	-0.27466	-3.05618e-17	-0.158904	-0.17909	5.46971	-0.227602
2.23462	6.8905	383.15	16.2891	-0.294845	-3.28365e-17	0.213144	-0.149069	-8.28907	-0.352398	-11.9904	372.249	-15.1751	-0.27374	-3.04574e-17	-0.158605	-0.175288	5.44193	-0.221845
2.24459	6.8453	386.278	16.5705	-0.294173	-3.27604e-17	0.21278	-0.144654	-8.16275	-0.350165	-11.7741	375.707	-14.9315	-0.27283	-3.0354e-17	-0.158318	-0.170207	5.43122	-0.215849
2.25457	6.65947	389.52	16.8312	-0.293423	-3.26754e-17	0.212318	-0.137268	-8.02897	-0.346933	-11.443	379.374	-14.6662	-0.271935	-3.02525e-17	-0.158021	-0.164281	5.44645	-0.210554
2.26454	6.34591	392.834	17.0487	-0.292638	-3.2586e-17	0.211764	-0.127287	-7.87953	-0.341965	-10.9913	383.108	-14.4208	-0.27107	-3.01545e-17	-0.157679	-0.156883	5.46826	-0.205833
2.27452	5.90292	396.196	17.2061	-0.291873	-3.24983e-17	0.211129	-0.114932	-7.71411	-0.335011	-10.4479	386.762	-14.2343	-0.270217	-3.00583e-17	-0.157279	-0.148662	5.5032	-0.202539
2.2845	5.31856	399.566	17.2928	-0.291137	-3.24132e-17	0.210439	-0.100242	-7.53082	-0.325926	-9.87759	390.16	-14.1282	-0.269378	-2.99643e-17	-0.156819	-0.140804	5.5617	-0.201397
2.29447	4.60404	402.894	17.2834	-0.290383	-3.23257e-17	0.209723	-0.0837686	-7.33049	-0.314464	-9.2961	393.144	-14.0991	-0.268567	-2.9874e-17	-0.156286	-0.133132	5.63032	-0.201917
2.30445	3.75675	406.089	17.1539	-0.289642	-3.22388e-17	0.208989	-0.0657933	-7.11199	-0.300423	-8.73502	395.554	-14.1602	-0.267803	-2.97895e-17	-0.155684	-0.125935	5.70281	-0.204152
2.31442	2.76098	409.045	16.8822	-0.288956	-3.21575e-17	0.208213	-0.0463466	-6.86635	-0.283389	-8.24919	397.27	-14.3226	-0.267089	-2.97112e-17	-0.155035	-0.120268	5.79194	-0.208814
2.3244	1.61873	411.676	16.455	-0.288319	-3.20808e-17	0.207382	-0.0258962	-6.58592	-0.263244	-7.84264	398.187	-14.5555	-0.266432	-2.96399e-17	-0.154349	-0.115995	5.88929	-0.21528
2.33438	0.316753	413.911	15.862	-0.287716	-3.20075e-17	0.206496	-0.00480771	-6.28238	-0.240755	-7.50956	398.235	-14.8198	-0.265823	-2.95742e-17	-0.15363	-0.11261	5.97176	-0.222231
2.34435	-1.17659	415.698	15.1041	-0.287143	-3.19372e-17	0.205555	0.0169078	-5.97366	-0.217048	-7.26095	397.379	-15.0788	-0.265228	-2.95104e-17	-0.152908	-0.110512	6.04813	-0.229501
2.35433	-2.8371	417.019	14.1642	-0.2866	-3.18702e-17	0.204541	0.0385157	-5.66133	-0.192289	-7.07101	395.661	-15.3055	-0.264634	-2.94468e-17	-0.152212	-0.109458	6.12476	-0.236927
2.3643	-4.63451	417.897	13.0342	-0.286094	-3.1807e-17	0.203446	0.0591922	-5.33741	-0.166474	-6.88346	393.18	-15.4575	-0.264037	-2.93827e-17	-0.151552	-0.108336	6.18808	-0.243279
2.37428	-6.56271	418.372	11.7189	-0.285625	-3.17482e-17	0.202288	0.0788687	-5.02787	-0.140835	-6.67072	390.088	-15.4978	-0.263432	-2.93175e-17	-0.15095	-0.106804	6.24565	-0.248133
2.38425	-8.60021	418.483	10.228	-0.285193	-3.16935e-17	0.20107	0.0973772	-4.73833	-0.115808	-6.3832	386.575	-15.3982	-0.262814	-2.92504e-17	-0.150416	-0.104087	6.30363	-0.251089
2.39423	-10.6994	418.281	8.55304	-0.284806	-3.16441e-17	0.199797	0.114075	-4.45961	-0.0911905	-5.95182	382.835	-15.151	-0.262163	-2.91789e-17	-0.149948	-0.0989529	6.36489	-0.251895
2.40421	-12.8277	417.838	6.69284	-0.284478	-3.16013e-17	0.1985	0.129254	-4.21018	-0.0674377	-5.34752	379	-14.7554	-0.261494	-2.91051e-17	-0.149534	-0.0908681	6.44019	-0.250732
2.41418	-14.9569	417.235	4.65071	-0.284178	-3.1562e-17	0.197205	0.143612	-4.00618	-0.044655	-4.56625	375.16	-14.1801	-0.260837	-2.90318e-17	-0.149171	-0.0795135	6.53278	-0.246923
2.42416	-17.0421	416.547	2.45387	-0.283882	-3.15233e-17	0.195948	0.157422	-3.84774	-0.022667	-3.59918	371.406	-13.3908	-0.260154	-2.89544e-17	-0.148877	-0.0643275	6.63807	-0.239331
2.43413	-19.0837	415.857	0.138801	-0.283601	-3.14864e-17	0.194756	0.171594	-3.73926	-0.00124806	-2.47866	367.784	-12.3868	-0.25942	-2.88701e-17	-0.148663	-0.0455565	6.75969	-0.227664
2.44411	-21.0947	415.212	-2.2685	-0.283323	-3.14498e-17	0.193625	0.1871	-3.68272	0.0201204	-1.2684	364.299	-11.2007	-0.258672	-2.87831e-17	-0.14853	-0.0240399	6.90454	-0.212286
2.45409	-23.0372	414.659	-4.74033	-0.283003	-3.14084e-17	0.192555	0.203461	-3.6622	0.0418657	-0.0117367	360.959	-9.8634	-0.257887	-2.86907e-17	-0.148471	-0.000230037	7.07471	-0.19332
2.46406	-24.8679	414.214	-7.21933	-0.282638	-3.13621e-17	0.191555	0.219936	-3.66338	0.063849	1.22139	357.776	-8.39981	-0.257011	-2.85868e-17	-0.14849	0.0247822	7.25933	-0.170433
2.47404	-26.567	413.835	-9.65261	-0.282255	-3.13135e-17	0.190634	0.23675	-3.68786	0.0860185	2.34559	354.749	-6.83761	-0.256053	-2.84725e-17	-0.148598	0.0492663	7.45107	-0.143616
2.48401	-28.0878	413.451	-11.9878	-0.281873	-3.12652e-17	0.189789	0.253122	-3.72594	0.108032	3.31499	351.863	-5.22169	-0.255098	-2.83574e-17	-0.148776	0.0719639	7.63847	-0.113356
2.49399	-29.3832	412.996	-14.201	-0.281493	-3.12173e-17	0.189006	0.267374	-3.75809	0.129223	4.09783	349.119	-3.59627	-0.254197	-2.82471e-17	-0.149025	0.091708	7.81316	-0.0804833
2.50397	-30.4465	412.426	-16.2577	-0.281086	-3.11667e-17	0.188274	0.278565	-3.77341	0.148746	4.665	346.55	-1.98552	-0.253321	-2.8139e-17	-0.149373	0.107391	7.97777	-0.0457077
2.51394	-31.2817	411.712	-18.1272	-0.280612	-3.11094e-17	0.187586	0.286432	-3.76986	0.165982	5.03321	344.199	-0.387453	-0.252476	-2.80334e-17	-0.149818	0.118723	8.11896	-0.00913923
2.52392	-31.8808	410.827	-19.8077	-0.280068	-3.10451e-17	0.186928	0.290023	-3.73732	0.180192	5.24277	342.089	1.1944	-0.2517	-2.7935e-17	-0.15034	0.125953	8.21839	0.0286944
2.53389	-32.2674	409.744	-21.3019	-0.279487	-3.09775e-17	0.186294	0.289732	-3.67914	0.191272	5.31021	340.233	2.74738	-0.251041	-2.78493e-17	-0.150945	0.129285	8.28348	0.0668891
2.54387	-32.4932	408.44	-22.6153	-0.278869	-3.09065e-17	0.185658	0.286359	-3.59953	0.199306	5.25125	338.653	4.25869	-0.250506	-2.77774e-17	-0.151645	0.129002	8.31932	0.104619
2.55385	-32.582	406.906	-23.7514	-0.278193	-3.08296e-17	0.185041	0.281353	-3.51371	0.205098	5.09995	337.329	5.75043	-0.250061	-2.77156e-17	-0.152436	0.125814	8.32182	0.141862
2.56382	-32.5745	405.164	-24.7209	-0.27746	-3.07468e-17	0.184457	0.276287	-3.43647	0.209675	4.86888	336.223	7.22905	-0.249678	-2.76609e-17	-0.153313	0.120313	8.30825	0.178634
2.5738	-32.5164	403.255	-25.5459	-0.276704	-3.06614e-17	0.18391	0.272602	-3.38071	0.214165	4.53779	335.295	8.69451	-0.249355	-2.76128e-17	-0.154284	0.112226	8.29234	0.215028
2.58377	-32.4421	401.22	-26.2653	-0.275959	-3.05769e-17	0.183391	0.270925	-3.35059	0.219342	4.1244	334.5	10.133	-0.249068	-2.75689e-17	-0.155328	0.102089	8.27967	0.250816
2.59375	-32.3718	399.136	-26.8993	-0.275198	-3.04903e-17	0.182905	0.271779	-3.35097	0.225835	3.64772	333.828	11.5512	-0.248772	-2.75241e-17	-0.156417	0.090334	8.26709	0.286058
2.60373	-32.3162	397.071	-27.4706	-0.2744	-3.0399e-17	0.182466	0.275675	-3.38725	0.23434	3.11971	333.299	12.9606	-0.248461	-2.74777e-17	-0.15754	0.0773152	8.2601	0.3212
2.6137	-32.2483	395.091	-27.9982	-0.273589	-3.03058e-17	0.182063	0.281578	-3.44975	0.244468	2.57767	332.963	14.353	-0.248133	-2.74295e-17	-0.15867	0.063963	8.26222	0.356158
2.62368	-32.1459	393.215	-28.4858	-0.272832	-3.02184e-17	0.181668	0.287682	-3.51898	0.254927	2.05473	332.85	15.7102	-0.247818	-2.73832e-17	-0.159778	0.0510624	8.2717	0.390415
2.63365	-32.0143	391.447	-28.9096	-0.272135	-3.01377e-17	0.181285	0.294095	-3.59597	0.265574	1.55444	332.963	17.0253	-0.247537	-2.73409e-17	-0.16084	0.0386961	8.28874	0.423827
2.64363	-31.8782	389.793	-29.2624	-0.271479	-3.00615e-17	0.180916	0.301002	-3.68051	0.276302	1.05954	333.284	18.2948	-0.24729	-2.73029e-17	-0.161849	0.026399	8.30393	0.455824
2.65361	-31.7645	388.265	-29.5529	-0.270868	-2.99906e-17	0.180536	0.30739	-3.75731	0.285988	0.55993	333.779	19.4954	-0.247088	-2.72708e-17	-0.162798	0.0139466	8.31371	0.485589
2.66358	-31.6964	386.863	-29.7875	-0.270322	-2.99273e-17	0.180119	0.313222	-3.82295	0.294358	0.036405	334.426	20.6073	-0.246952	-2.72469e-17	-0.163707	0.000905892	8.32176	0.512787
2.67356	-31.68	385.576	-29.98	-0.269845	-2.98718e-17	0.179664	0.31924	-3.88545	0.302109	-0.487922	335.196	21.6335	-0.246899	-2.72333e-17	-0.164586	-0.0121218	8.32756	0.537459
2.68353	-31.6951	384.421	-30.129	-0.269431	-2.98234e-17	0.179198	0.325717	-3.95053	0.309623	-0.98088	336.062	22.5697	-0.246928	-2.72301e-17	-0.16541	-0.0242601	8.31181	0.558217
2.69351	-31.7239	383.442	-30.2368	-0.269044	-2.9778e-17	0.178739	0.332889	-4.02358	0.317284	-1.42419	337.014	23.4099	-0.247015	-2.72347e-17	-0.166174	-0.0350074	8.28401	0.575428
2.70349	-31.7376	382.67	-30.3146	-0.26869	-2.97363e-17	0.178292	0.340245	-4.10245	0.32499	-1.8064	338.076	24.1429	-0.247151	-2.72456e-17	-0.166886	-0.0441267	8.25854	0.589762
2.71346	-31.7062	382.122	-30.3742	-0.268397	-2.97015e-17	0.177863	0.346951	-4.18145	0.332376	-2.08984	339.26	24.7687	-0.2473	-2.72591e-17	-0.167522	-0.0507298	8.23536	0.601247
2.72344	-31.6225	381.8	-30.4068	-0.268174	-2.96746e-17	0.177471	0.353306	-4.26569	0.339723	-2.26543	340.554	25.3073	-0.247464	-2.72751e-17	-0.168065	-0.05462	8.21081	0.610163
2.73341	-31.4833	381.692	-30.4136	-0.268014	-2.96544e-17	0.177137	0.359949	-4.36389	0.347719	-2.36102	341.958	25.7829	-0.247625	-2.72915e-17	-0.16853	-0.0565115	8.18482	0.617119
